<?xml version="1.0" encoding="utf-8"?>
<!-- Generator: Adobe Illustrator 20.1.0, SVG Export Plug-In . SVG Version: 6.00 Build 0)  -->
<svg version="1.1" id="Layer_1" xmlns="http://www.w3.org/2000/svg" xmlns:xlink="http://www.w3.org/1999/xlink" x="0px" y="0px"
	 viewBox="0 0 41.2 11.1" style="enable-background:new 0 0 41.2 11.1;" xml:space="preserve">
<style type="text/css">
	.st0{fill:#FFFFFF;}
</style>
<g>
	<path class="st0" d="M5.1,7.3L2.7,7.3c-1.1,0-2.1-0.1-2.1-1.9v-1c0-1.3,0.7-1.8,1.7-1.8h3.7c1.1,0,1.7,0.4,1.7,1.8V5H5
		c0-0.3-0.2-0.6-0.3-0.7S4.3,4.1,4.2,4.1c-0.1,0-0.8,0-0.8,0.9v0.6l2.4,0c0.9,0,2.1,0.1,2.1,1.7v1c0,1.3-0.7,1.8-1.9,1.8H2.5
		c-0.9,0-2-0.1-2-1.8V7.9h2.8c0,0.3,0.1,0.4,0.3,0.5C3.8,8.6,4,8.6,4.2,8.6c0.9,0,0.9-0.9,0.9-1.1V7.3z"/>
	<path class="st0" d="M8.7,0.8h2.8v1.2H8.7V0.8z M8.7,2.7h2.8v7.4H8.7V2.7z"/>
	<path class="st0" d="M15.2,3.8L15.2,3.8c0.4-1.1,0.8-1.2,2.4-1.2c0.4,0,1,0,1.4,0.3c0,0,0.5,0.3,0.5,0.8c0,0.2,0,0.3,0.1,0.2
		c0.3-0.9,0.7-1.2,1.9-1.2H22c1.1,0,1.9,0.3,1.9,1.8v5.7h-2.8v-5c0-0.2,0-1-0.8-1c-0.8,0-0.8,0.8-0.8,1v4.9h-2.8V5.1
		c0-0.2,0-1-0.8-1c-0.8,0-0.8,0.8-0.8,1v5h-2.8V2.7h2.8V3.8z"/>
	<path class="st0" d="M30.2,2.6c1.2,0,1.8,0.4,1.8,1.8v4c0,1.3-0.7,1.8-1.9,1.8h-3.5c-1,0-1.9-0.2-1.9-1.8v-4c0-1.7,1.1-1.7,1.9-1.7
		H30.2z M29.3,5.1c0-0.2,0-1-0.8-1s-0.8,0.8-0.8,1v2.6c0,0.4,0,1,0.8,1s0.8-0.6,0.8-1V5.1z"/>
	<path class="st0" d="M35.8,3.9L35.8,3.9c0.1-0.4,0.2-0.6,0.4-0.8c0.3-0.3,0.6-0.4,1.4-0.4h0.9c1,0,1.8,0.3,1.8,1.8v5.7h-2.8V5.1
		c0-0.3,0-1-0.8-1c-0.8,0-0.8,0.8-0.8,1.1v4.8H33V2.7h2.8V3.9z"/>
</g>
</svg>
